# xmcd CD database file
#
# Track frame offsets:
#	150
#	21272
#	44297
#	73697
#	95297
#	114872
#	137747
#	166247
#	188370
#	208397
#
# Disc length: 3164 seconds
#
# Revision: 0
# Processed by: cddbd v1.5.1PL0 Copyright (c) Steve Scherf et al.
# Submitted via: CDex 1.51
#
DISCID=820c5a0a
DTITLE=REAL BLOOD - ±0プラスマイナスゼロ
DYEAR=2004
DGENRE=Soul
TTITLE0=B9　GOOD
TTITLE1=What's your name?
TTITLE2=恋は上々
TTITLE3=Thank you…
TTITLE4=No Problem
TTITLE5=SILIKの雨
TTITLE6=Eyezeen
TTITLE7=恋はメールに乗って
TTITLE8=ANGEL
TTITLE9=バラの棘
EXTD=YEAR: 2004
EXTT0=
EXTT1=
EXTT2=
EXTT3=
EXTT4=
EXTT5=
EXTT6=
EXTT7=
EXTT8=
EXTT9=
PLAYORDER=
